<?xml version="1.0" encoding="UTF-8"?>
<svg width="24px" height="24px" viewBox="0 0 24 24" version="1.1" xmlns="http://www.w3.org/2000/svg" xmlns:xlink="http://www.w3.org/1999/xlink">
    <!-- Generator: Sketch 55.2 (78181) - https://sketchapp.com -->
    <title>Shape</title>
    <desc>Created with Sketch.</desc>
    <g id="Page-1" stroke="none" stroke-width="1" fill="none" fill-rule="evenodd">
        <g id="behance" fill="#FFFFFF" fill-rule="nonzero">
            <path d="M18.003,12.333 L14.985,12.333 C15.274,10.356 17.887,10.618 18.003,12.333 Z M8.261,13 L6,13 L6,15.01 L8.228,15.01 C10.264,15.01 10.139,13 8.261,13 Z M8.181,9 L6,9 L6,11 L8.389,11 C10.062,11 10.327,9 8.181,9 Z M24,0 L24,24 L0,24 L0,0 L24,0 Z M14,8 L19,8 L19,7 L14,7 L14,8 Z M10.448,11.618 C12.355,10.644 12.285,7.068 8.635,7.014 L4,7.014 L4,16.992 L8.311,16.992 C12.833,16.992 12.756,12.458 10.448,11.618 Z M19.935,12.22 C19.661,10.457 18.406,9.27 16.352,9.27 C14.257,9.27 13,10.61 13,13.217 C13,15.848 14.368,17 16.417,17 C18.465,17 19.523,15.865 19.817,15 L17.705,15 C16.968,15.855 14.812,15.521 14.938,13.647 L19.997,13.647 C20.007,13.013 19.986,12.558 19.935,12.22 L19.935,12.22 Z" id="Shape"></path>
        </g>
    </g>
</svg>