<?xml version="1.0" encoding="UTF-8"?>
<svg width="195px" height="195px" viewBox="0 0 195 195" version="1.1" xmlns="http://www.w3.org/2000/svg" xmlns:xlink="http://www.w3.org/1999/xlink">
    <!-- Generator: Sketch 55.2 (78181) - https://sketchapp.com -->
    <title>Combined Shape</title>
    <desc>Created with Sketch.</desc>
    <g id="Page-1" stroke="none" stroke-width="1" fill="none" fill-rule="evenodd">
        <path d="M0,0 L195,0 L195,195 L0,195 L0,0 Z M84.3028041,105.157072 C89.4296415,112.01106 97.2806052,116.300404 105.818038,116.911838 C114.355471,117.523273 122.737562,114.396508 128.788804,108.343072 L144.088291,93.0435846 C155.316697,81.4188274 155.156812,63.0195037 143.777665,51.6403566 C132.398518,40.2612096 113.999194,40.1013244 102.424017,51.2810046 L93.6106953,60.0424962 L90.7740341,62.8626652 L96.4143721,68.5359876 L108.023033,56.9948186 C116.417858,48.8874078 129.827534,49.0039342 138.120811,57.2972109 C146.414088,65.5904876 146.530614,79.0001642 138.382711,87.4363103 L123.131437,102.68673 C118.720697,107.099069 112.611716,109.377898 106.389519,108.932276 C100.167322,108.486655 94.4454331,105.360523 90.7089245,100.365243 L88.3130102,97.1621829 L81.9068898,101.954012 L84.3028041,105.157072 Z M111.108924,90.1652431 C105.982087,83.3112549 98.1311234,79.0219106 89.5936903,78.4104764 C81.0562572,77.7990422 72.6741663,80.925807 66.6229245,86.9792431 L51.3234372,102.27873 C40.0950313,113.903487 40.2549165,132.302811 51.6340635,143.681958 C63.0132106,155.061105 81.4125343,155.22099 92.9877115,144.04131 L101.758291,135.271585 L104.586719,132.443157 L98.9298643,126.786303 L87.3804372,138.33573 C78.9938711,146.434907 65.5841944,146.318381 57.2909178,138.025104 C48.9976411,129.731827 48.8811146,116.322151 57.0290171,107.886005 L72.2802914,92.6355846 C76.6910312,88.2232454 82.8000127,85.9444169 89.0222097,86.3900384 C95.2444067,86.8356599 100.966296,89.9617922 104.702804,94.9570718 L107.098718,98.1601319 L113.504839,93.3683033 L111.108924,90.1652431 Z" id="Combined-Shape" fill="#FFFFFF"></path>
    </g>
</svg>